<svg xmlns="http://www.w3.org/2000/svg" xmlns:xlink="http://www.w3.org/1999/xlink" aria-hidden="true" role="img" class="iconify iconify--logos" width="31.88" height="32" preserveAspectRatio="xMidYMid meet" viewBox="0 0 256 257"><defs><linearGradient id="IconifyId1813088fe1fbc01fb466" x1="-.828%" x2="57.636%" y1="7.235%" y2="78.411%"><stop offset="0%" stop-color="#41D1FF"></stop><stop offset="100%" stop-color="#BD34FE"></stop></linearGradient><linearGradient id="IconifyId1813088fe1fbc01fb467" x1="43.376%" x2="50.316%" y1="89.06%" y2="8.194%"><stop offset="0%" stop-color="#FFEA83"></stop><stop offset="8.333%" stop-color="#FFDD35"></stop><stop offset="100%" stop-color="#FFA800"></stop></linearGradient></defs><path fill="url(#IconifyId1813088fe1fbc01fb466)" d="M255.153 37.938L134.897 252.976c-2.483 4.44-8.862 4.466-11.382.048L.875 37.958c-2.746-4.814 1.371-10.646 6.827-9.06l117.713 17.502A4.362 4.362 0 0 0 127.75 47.17l17.02-117.48c2.72-4.814 9.997-4.841 12.737-.048l40.871 78.984c2.318 4.44-.578 9.538-5.186 9.098l-25.463-4.807l-17.489 120.49a4.362 4.362 0 0 0 2.318 4.444l117.711 17.503c5.234.781 9.997-4.24 6.827-9.06Z"></path><path fill="url(#IconifyId1813088fe1fbc01fb467)" d="M185.432.063L96.44 17.501a4.362 4.362 0 0 0-2.318 4.444l17.489 120.49a4.362 4.362 0 0 0 4.445 2.318l25.463-4.807l40.871 78.984c2.318 4.44-.578 9.538-5.186 9.098l-117.713-17.503a4.362 4.362 0 0 0-2.318-4.444L.875 37.958c-2.746-4.814 1.371-10.646 6.827-9.06l117.713 17.502A4.362 4.362 0 0 0 127.75 47.17l17.02-117.48c2.72-4.814 9.997-4.841 12.737-.048l40.871 78.984c2.318 4.44-.578 9.538-5.186 9.098l-25.463-4.807Z"></path></svg>